<?xml version="1.0" encoding="UTF-8"?>
<svg width="60px" height="57px" viewBox="0 0 60 57" version="1.1" xmlns="http://www.w3.org/2000/svg" xmlns:xlink="http://www.w3.org/1999/xlink">
    <title>Shape</title>
    <g id="Web-App" stroke="none" stroke-width="1" fill="none" fill-rule="evenodd">
        <g id="New-product-Step-1-Copy-13" transform="translate(-465.000000, -636.000000)" fill="#010002" fill-rule="nonzero">
            <g id="Group-4" transform="translate(398.000000, 587.000000)">
                <g id="photo" transform="translate(67.000000, 49.000000)">
                    <path d="M53.2172638,0 L6.78615066,0 C3.04349427,0 0,3.08335863 0,6.88076677 L0,50.1269681 C0,53.9198982 3.04349427,57 6.78615066,57 L53.217063,57 C56.9597193,57 60,53.9198982 60,50.1269681 L60,6.88076677 C60,3.08335863 56.9599202,0 53.2172638,0 Z M38.7991792,10.2330135 C42.4185131,10.2330135 45.3537487,13.2078806 45.3537487,16.8756281 C45.3537487,20.5433756 42.4183122,23.5182426 38.7991792,23.5182426 C35.178841,23.5182426 32.2446097,20.5433756 32.2446097,16.8756281 C32.2446097,13.2078806 35.178841,10.2330135 38.7991792,10.2330135 Z M51.0890473,50.642761 L29.9994979,50.642761 L9.84952917,50.642761 C8.03925966,50.642761 7.233044,49.3154187 8.04910136,47.6778678 L19.297959,25.0981891 C20.1130121,23.4608418 21.6663933,23.3146937 22.7664539,24.7714932 L34.0775753,39.7518775 C35.1776359,41.2088804 37.100382,41.3328417 38.3729735,40.0274827 L41.1400969,37.1877721 C42.4116842,35.882413 44.2852217,36.0440308 45.3230185,37.5464252 L52.4883758,47.9190732 C53.524164,49.4237067 52.8993168,50.642761 51.0890473,50.642761 Z" id="Shape"></path>
                </g>
            </g>
        </g>
    </g>
</svg>