<?xml version="1.0" standalone="no"?>
<!DOCTYPE svg PUBLIC "-//W3C//DTD SVG 20010904//EN"
 "http://www.w3.org/TR/2001/REC-SVG-20010904/DTD/svg10.dtd">
<svg version="1.0" xmlns="http://www.w3.org/2000/svg"
 width="832.000000pt" height="832.000000pt" viewBox="0 0 832.000000 832.000000"
 preserveAspectRatio="xMidYMid meet">
<metadata>
Created by potrace 1.14, written by Peter Selinger 2001-2017
</metadata>
<g transform="translate(0.000000,832.000000) scale(0.100000,-0.100000)"
fill="#000000" stroke="none">
<path d="M963 8298 c2 -13 30 -110 61 -216 261 -893 468 -1987 550 -2897 37
-414 41 -499 41 -1000 0 -513 -4 -592 -46 -1053 -81 -889 -293 -2007 -554
-2921 -30 -107 -55 -198 -55 -203 0 -4 489 -7 1088 -6 l1087 3 70 210 c329
979 562 2054 654 3006 40 412 45 533 45 964 0 417 -5 551 -40 915 -91 965
-334 2070 -664 3025 -26 77 -53 152 -59 168 l-11 27 -1086 0 -1086 0 5 -22z"/>
<path d="M4250 5027 c0 -2 29 -64 64 -138 265 -555 477 -1234 555 -1782 35
-241 45 -380 44 -617 0 -228 -7 -326 -39 -555 -55 -396 -179 -866 -341 -1290
-67 -175 -189 -458 -249 -577 l-34 -68 1089 0 1089 0 52 88 c78 134 245 468
316 634 215 503 352 1016 395 1480 15 164 6 594 -15 748 -90 647 -331 1337
-684 1963 l-67 117 -1087 0 c-599 0 -1088 -2 -1088 -3z"/>
</g>
</svg>
