<?xml version="1.0" encoding="UTF-8"?>
<svg width="15px" height="16px" viewBox="0 0 15 16" version="1.1" xmlns="http://www.w3.org/2000/svg" xmlns:xlink="http://www.w3.org/1999/xlink">
    <title>Combined Shape</title>
    <g id="Web-App" stroke="none" stroke-width="1" fill="none" fill-rule="evenodd">
        <path d="M14.3503186,1.27268475 C14.3512437,1.27360676 14.3521672,1.27453038 14.3530891,1.2754556 C14.7953983,1.71936176 14.7953498,2.43739853 14.3529806,2.88124497 L8.96470451,8.28717012 L14.3529806,13.6930239 C14.7953498,14.1368704 14.7953983,14.8549072 14.3530891,15.2988133 C13.9127581,15.740734 13.1975518,15.7420228 12.7556311,15.3016918 C12.7547059,15.3007699 12.7537823,15.2998464 12.7528603,15.2989214 L7.36470451,9.89217012 L1.97663353,15.2989214 C1.53624291,15.7407826 0.821036453,15.7419748 0.379175201,15.3015842 L0.37640473,15.2988133 C-0.0659045329,14.8549072 -0.0658560568,14.1368704 0.37651314,13.6930239 L5.76370451,8.28717012 L0.37651314,2.88124497 C-0.0658560568,2.43739853 -0.0659045329,1.71936176 0.37640473,1.2754556 C0.816735686,0.833534885 1.53194197,0.832246134 1.97386269,1.27257709 C1.9747879,1.27349898 1.97571152,1.27442247 1.97663353,1.27534756 L7.36470451,6.68117012 L12.7528603,1.27534756 C13.1932509,0.83348631 13.9084573,0.832294129 14.3503186,1.27268475 Z" id="Combined-Shape" fill="#000000"></path>
    </g>
</svg>