<?xml version="1.0" encoding="UTF-8"?>
<svg width="10px" height="9px" viewBox="0 0 10 9" version="1.1" xmlns="http://www.w3.org/2000/svg" xmlns:xlink="http://www.w3.org/1999/xlink">
    <title>Combined Shape</title>
    <g id="Web-App" stroke="none" stroke-width="1" fill="none" fill-rule="evenodd">
        <g id="Category-Copy" transform="translate(-583.000000, -351.000000)" fill="#FFFFFF">
            <path d="M591.598872,351.120793 C592.02957,351.369457 592.177138,351.920188 591.928475,352.350886 L587.876269,359.369513 C587.773866,359.546879 587.620237,359.676229 587.44486,359.749666 C587.427156,359.757468 587.409473,359.764518 587.391626,359.770985 C587.38432,359.772542 587.376985,359.774979 587.369621,359.777321 C587.056419,359.883089 586.696952,359.810602 586.447461,359.561111 L583.263747,356.377397 C582.912084,356.025733 582.912084,355.455574 583.263747,355.103911 C583.615411,354.752248 584.18557,354.752248 584.537233,355.103911 L586.897,357.463 L590.36878,351.450396 C590.617443,351.019698 591.168175,350.87213 591.598872,351.120793 Z" id="Combined-Shape" transform="translate(587.524634, 355.412310) rotate(5.000000) translate(-587.524634, -355.412310) "></path>
        </g>
    </g>
</svg>